<mxfile host="65bd71144e">
    <diagram id="qDe_O7FvE9Gk-fQsLIIQ" name="第 1 页">
        <mxGraphModel dx="1824" dy="778" grid="1" gridSize="10" guides="1" tooltips="1" connect="1" arrows="1" fold="1" page="1" pageScale="1" pageWidth="1600" pageHeight="900" math="0" shadow="0">
            <root>
                <mxCell id="0"/>
                <mxCell id="1" parent="0"/>
                <mxCell id="2" value="前端多资源工程" style="rounded=0;whiteSpace=wrap;html=1;fontStyle=1;fontSize=18;fontColor=#FFFFFF;" parent="1" vertex="1">
                    <mxGeometry x="300" y="10" width="600" height="40" as="geometry"/>
                </mxCell>
                <mxCell id="4" value="通用组件库" style="rounded=0;whiteSpace=wrap;html=1;fontColor=#FFFFFF;" parent="1" vertex="1">
                    <mxGeometry x="300" y="110" width="120" height="60" as="geometry"/>
                </mxCell>
                <mxCell id="5" value="前端SDK" style="rounded=0;whiteSpace=wrap;html=1;fontColor=#FFFFFF;" parent="1" vertex="1">
                    <mxGeometry x="300" y="230" width="120" height="60" as="geometry"/>
                </mxCell>
                <mxCell id="6" value="前端工程核心模板" style="rounded=0;whiteSpace=wrap;html=1;fontColor=#FFFFFF;" parent="1" vertex="1">
                    <mxGeometry x="300" y="350" width="120" height="60" as="geometry"/>
                </mxCell>
                <mxCell id="7" value="业务工程-01" style="rounded=0;whiteSpace=wrap;html=1;fontColor=#FFFFFF;" parent="1" vertex="1">
                    <mxGeometry x="300" y="470" width="120" height="60" as="geometry"/>
                </mxCell>
                <mxCell id="8" value="统一架构管理，资源复用通过依赖的方式" style="rounded=0;whiteSpace=wrap;html=1;fontStyle=1;fontSize=18;fontColor=#FFFFFF;" parent="1" vertex="1">
                    <mxGeometry x="300" y="590" width="600" height="40" as="geometry"/>
                </mxCell>
                <mxCell id="31" style="edgeStyle=none;html=1;exitX=1;exitY=0.5;exitDx=0;exitDy=0;entryX=0;entryY=0.5;entryDx=0;entryDy=0;fontSize=14;fontColor=#FFFFFF;" parent="1" source="9" target="21" edge="1">
                    <mxGeometry relative="1" as="geometry"/>
                </mxCell>
                <mxCell id="9" value="&lt;span style=&quot;font-family: 微软雅黑; font-size: 13px; background-color: rgba(255, 255, 255, 0.01);&quot;&gt;个性化的通用组件：拓扑层次布局、拓扑力图布局、波形图&lt;/span&gt;" style="rounded=0;whiteSpace=wrap;html=1;fontColor=#FFFFFF;" parent="1" vertex="1">
                    <mxGeometry x="540" y="110" width="360" height="60" as="geometry"/>
                </mxCell>
                <mxCell id="32" style="edgeStyle=none;html=1;exitX=1;exitY=0.5;exitDx=0;exitDy=0;entryX=0;entryY=0.5;entryDx=0;entryDy=0;fontSize=14;fontColor=#FFFFFF;" parent="1" source="10" target="28" edge="1">
                    <mxGeometry relative="1" as="geometry"/>
                </mxCell>
                <mxCell id="10" value="&lt;span style=&quot;font-family: 微软雅黑; font-size: 13px; background-color: rgba(255, 255, 255, 0.01);&quot;&gt;工具函数：请求库、常用正则、原生API简化、CLI等&lt;/span&gt;" style="rounded=0;whiteSpace=wrap;html=1;fontColor=#FFFFFF;" parent="1" vertex="1">
                    <mxGeometry x="540" y="230" width="360" height="60" as="geometry"/>
                </mxCell>
                <mxCell id="37" style="edgeStyle=none;html=1;exitX=1;exitY=0.5;exitDx=0;exitDy=0;entryX=0;entryY=0.5;entryDx=0;entryDy=0;fontSize=14;fontColor=#FFFFFF;" parent="1" source="11" target="36" edge="1">
                    <mxGeometry relative="1" as="geometry"/>
                </mxCell>
                <mxCell id="11" value="&lt;span style=&quot;font-family: 微软雅黑; font-size: 13px; background-color: rgba(255, 255, 255, 0.01);&quot;&gt;没有业务代码的前端工程，可快速搭建业务工程&lt;/span&gt;" style="rounded=0;whiteSpace=wrap;html=1;fontColor=#FFFFFF;" parent="1" vertex="1">
                    <mxGeometry x="540" y="350" width="360" height="60" as="geometry"/>
                </mxCell>
                <mxCell id="43" style="edgeStyle=none;html=1;exitX=1;exitY=0.5;exitDx=0;exitDy=0;entryX=0;entryY=0.5;entryDx=0;entryDy=0;fontSize=14;fontColor=#FFFFFF;" parent="1" source="12" target="42" edge="1">
                    <mxGeometry relative="1" as="geometry"/>
                </mxCell>
                <mxCell id="12" value="&lt;span style=&quot;font-family: 微软雅黑; font-size: 13px; background-color: rgba(255, 255, 255, 0.01);&quot;&gt;由核心模板创建的具体业务工程&lt;/span&gt;" style="rounded=0;whiteSpace=wrap;html=1;fontColor=#FFFFFF;" parent="1" vertex="1">
                    <mxGeometry x="540" y="470" width="360" height="60" as="geometry"/>
                </mxCell>
                <mxCell id="13" value="" style="shape=flexArrow;endArrow=classic;html=1;fontSize=18;fontColor=#FFFFFF;" parent="1" edge="1">
                    <mxGeometry width="50" height="50" relative="1" as="geometry">
                        <mxPoint x="430" y="140" as="sourcePoint"/>
                        <mxPoint x="530" y="140" as="targetPoint"/>
                    </mxGeometry>
                </mxCell>
                <mxCell id="17" value="" style="shape=flexArrow;endArrow=classic;html=1;fontSize=18;fontColor=#FFFFFF;" parent="1" edge="1">
                    <mxGeometry width="50" height="50" relative="1" as="geometry">
                        <mxPoint x="430" y="259.5" as="sourcePoint"/>
                        <mxPoint x="530" y="259.5" as="targetPoint"/>
                    </mxGeometry>
                </mxCell>
                <mxCell id="18" value="" style="shape=flexArrow;endArrow=classic;html=1;fontSize=18;fontColor=#FFFFFF;" parent="1" edge="1">
                    <mxGeometry width="50" height="50" relative="1" as="geometry">
                        <mxPoint x="430" y="379.5" as="sourcePoint"/>
                        <mxPoint x="530" y="379.5" as="targetPoint"/>
                    </mxGeometry>
                </mxCell>
                <mxCell id="19" value="" style="shape=flexArrow;endArrow=classic;html=1;fontSize=18;fontColor=#FFFFFF;" parent="1" edge="1">
                    <mxGeometry width="50" height="50" relative="1" as="geometry">
                        <mxPoint x="430" y="499.5" as="sourcePoint"/>
                        <mxPoint x="530" y="499.5" as="targetPoint"/>
                    </mxGeometry>
                </mxCell>
                <mxCell id="21" value="" style="rounded=0;whiteSpace=wrap;html=1;fontSize=18;fontColor=#FFFFFF;" parent="1" vertex="1">
                    <mxGeometry x="980" y="90" width="560" height="100" as="geometry"/>
                </mxCell>
                <mxCell id="22" value="折线图" style="rounded=1;whiteSpace=wrap;html=1;fontSize=14;fontColor=#FFFFFF;fillColor=#40A0FF;" parent="1" vertex="1">
                    <mxGeometry x="990" y="100" width="80" height="30" as="geometry"/>
                </mxCell>
                <mxCell id="23" value="饼图" style="rounded=1;whiteSpace=wrap;html=1;fontSize=14;fontColor=#FFFFFF;fillColor=#40A0FF;" parent="1" vertex="1">
                    <mxGeometry x="1090" y="100" width="80" height="30" as="geometry"/>
                </mxCell>
                <mxCell id="24" value="拓扑-层次" style="rounded=1;whiteSpace=wrap;html=1;fontSize=14;fontColor=#FFFFFF;fillColor=#40A0FF;" parent="1" vertex="1">
                    <mxGeometry x="990" y="150" width="80" height="30" as="geometry"/>
                </mxCell>
                <mxCell id="25" value="拓扑-力图" style="rounded=1;whiteSpace=wrap;html=1;fontSize=14;fontColor=#FFFFFF;fillColor=#40A0FF;" parent="1" vertex="1">
                    <mxGeometry x="1090" y="150" width="80" height="30" as="geometry"/>
                </mxCell>
                <mxCell id="26" value="配置化组件" style="rounded=1;whiteSpace=wrap;html=1;fontSize=14;fontColor=#FFFFFF;fillColor=#67C23A;" parent="1" vertex="1">
                    <mxGeometry x="1290" y="100" width="80" height="80" as="geometry"/>
                </mxCell>
                <mxCell id="27" value="饼图组合" style="rounded=1;whiteSpace=wrap;html=1;fontSize=14;fontColor=#FFFFFF;fillColor=#67C23A;" parent="1" vertex="1">
                    <mxGeometry x="1190" y="100" width="80" height="80" as="geometry"/>
                </mxCell>
                <mxCell id="28" value="" style="rounded=0;whiteSpace=wrap;html=1;fontSize=18;fontColor=#FFFFFF;" parent="1" vertex="1">
                    <mxGeometry x="980" y="210" width="560" height="100" as="geometry"/>
                </mxCell>
                <mxCell id="29" value="" style="shape=curlyBracket;whiteSpace=wrap;html=1;rounded=1;labelPosition=left;verticalLabelPosition=middle;align=right;verticalAlign=middle;fontSize=14;fontColor=#FFFFFF;fillColor=#67C23A;strokeWidth=3;" parent="1" vertex="1">
                    <mxGeometry x="250" y="10" width="20" height="620" as="geometry"/>
                </mxCell>
                <mxCell id="30" value="" style="shape=curlyBracket;whiteSpace=wrap;html=1;rounded=1;flipH=1;labelPosition=right;verticalLabelPosition=middle;align=left;verticalAlign=middle;strokeWidth=3;fontSize=14;fontColor=#FFFFFF;fillColor=#67C23A;" parent="1" vertex="1">
                    <mxGeometry x="930" y="10" width="20" height="620" as="geometry"/>
                </mxCell>
                <mxCell id="33" value="创建子工程" style="rounded=1;whiteSpace=wrap;html=1;fontSize=14;fontColor=#FFFFFF;fillColor=#40A0FF;" parent="1" vertex="1">
                    <mxGeometry x="990" y="240" width="100" height="40" as="geometry"/>
                </mxCell>
                <mxCell id="34" value="业务内用到的正则" style="rounded=1;whiteSpace=wrap;html=1;fontSize=14;fontColor=#FFFFFF;fillColor=#40A0FF;" parent="1" vertex="1">
                    <mxGeometry x="1110" y="240" width="150" height="40" as="geometry"/>
                </mxCell>
                <mxCell id="35" value="网络请求库" style="rounded=1;whiteSpace=wrap;html=1;fontSize=14;fontColor=#FFFFFF;fillColor=#40A0FF;" parent="1" vertex="1">
                    <mxGeometry x="1430" y="240" width="100" height="40" as="geometry"/>
                </mxCell>
                <mxCell id="36" value="精简的工程框架，只保留基础功能，和基本的后台布局" style="rounded=0;whiteSpace=wrap;html=1;fontSize=18;fontColor=#FFFFFF;" parent="1" vertex="1">
                    <mxGeometry x="980" y="330" width="560" height="100" as="geometry"/>
                </mxCell>
                <mxCell id="39" value="状态管理工具" style="rounded=1;whiteSpace=wrap;html=1;fontSize=14;fontColor=#FFFFFF;fillColor=#40A0FF;" parent="1" vertex="1">
                    <mxGeometry x="1270" y="240" width="150" height="40" as="geometry"/>
                </mxCell>
                <mxCell id="40" value="文档化建设" style="rounded=1;whiteSpace=wrap;html=1;fontSize=14;fontColor=#FFFFFF;fillColor=#E6A23C;" parent="1" vertex="1">
                    <mxGeometry x="1390" y="100" width="120" height="80" as="geometry"/>
                </mxCell>
                <mxCell id="42" value="具体的业务工程，可以使用基本组件直接封装为业务组件，也可以使用配置化组件，来直接生成页面" style="rounded=0;whiteSpace=wrap;html=1;fontSize=18;fontColor=#FFFFFF;" parent="1" vertex="1">
                    <mxGeometry x="980" y="450" width="560" height="100" as="geometry"/>
                </mxCell>
                <mxCell id="45" value="" style="edgeStyle=none;html=1;fontSize=18;fontColor=#FFFFFF;" parent="1" source="44" target="29" edge="1">
                    <mxGeometry relative="1" as="geometry"/>
                </mxCell>
                <mxCell id="44" value="Vue3 + TS" style="rounded=0;whiteSpace=wrap;html=1;strokeWidth=3;fontSize=18;fontColor=#FFFFFF;fillColor=#E6A23C;fontStyle=1" parent="1" vertex="1">
                    <mxGeometry x="80" y="290" width="130" height="60" as="geometry"/>
                </mxCell>
            </root>
        </mxGraphModel>
    </diagram>
</mxfile>